<svg xmlns="http://www.w3.org/2000/svg" width="38" height="32.849" viewBox="0 0 38 32.849">
  <path id="Union_4" data-name="Union 4" d="M-467.367,18.6l-10.8-11.539a3.805,3.805,0,0,1-2.111-3.408,3.8,3.8,0,0,1,.185-1.176,3.873,3.873,0,0,1,.974-1.941l11.756-12.556a3.4,3.4,0,0,1,5.038,0,3.99,3.99,0,0,1,0,5.381L-468.4-.154h22.314a3.805,3.805,0,0,1,3.805,3.805,3.805,3.805,0,0,1-3.805,3.805h-21.635l5.394,5.761a3.929,3.929,0,0,1,1.044,2.691,3.929,3.929,0,0,1-1.044,2.691,3.44,3.44,0,0,1-2.519,1.114A3.44,3.44,0,0,1-467.367,18.6Z" transform="translate(480.282 13.136)" fill="#9488b6"/>
</svg>
